<?xml version="1.0" encoding="UTF-8" standalone="no"?>
<svg width="12px" height="15px" viewBox="0 0 12 15" version="1.1" xmlns="http://www.w3.org/2000/svg" xmlns:xlink="http://www.w3.org/1999/xlink" xmlns:sketch="http://www.bohemiancoding.com/sketch/ns">
    <!-- Generator: Sketch 3.3.2 (12043) - http://www.bohemiancoding.com/sketch -->
    <title>Imported-Layers</title>
    <desc>Created with Sketch.</desc>
    <defs></defs>
    <g id="Page-1" stroke="none" stroke-width="1" fill="none" fill-rule="evenodd" sketch:type="MSPage">
        <g id="Dashboard" sketch:type="MSArtboardGroup" transform="translate(-845.000000, -430.000000)" fill="#000000">
            <g id="app-4" sketch:type="MSLayerGroup" transform="translate(325.000000, 402.000000)">
                <g id="actionbar" transform="translate(434.000000, 28.000000)" sketch:type="MSShapeGroup">
                    <path d="M96.59,2.7965625 L94.638125,2.7965625 L94.638125,1.5403125 C94.638125,0.6890625 93.9490625,0 93.09875,0 L90.216875,0 C89.365625,0 88.6765625,0.6890625 88.6765625,1.5403125 L88.6765625,2.7965625 L86.725625,2.7965625 C86.3253125,2.7965625 86,3.121875 86,3.5221875 L86,4.5065625 L97.3146875,4.5065625 L97.3146875,3.5221875 C97.3146875,3.121875 96.9903125,2.7965625 96.59,2.7965625 L96.59,2.7965625 L96.59,2.7965625 Z M93.5890625,2.7965625 L89.7265625,2.7965625 L89.725625,1.5403125 C89.7265625,1.269375 89.9459375,1.05 90.216875,1.05 L93.09875,1.05 C93.36875,1.05 93.588125,1.269375 93.5890625,1.5403125 L93.5890625,2.7965625 L93.5890625,2.7965625 Z M86.9375,5.625 L96.3125,5.625 L96.3125,15 L86.9375,15 L86.9375,5.625 L86.9375,5.625 Z" id="Imported-Layers"></path>
                </g>
            </g>
        </g>
    </g>
</svg>