<?xml version="1.0" encoding="UTF-8" standalone="no"?>
<svg width="10px" height="15px" viewBox="0 0 10 15" version="1.1" xmlns="http://www.w3.org/2000/svg" xmlns:xlink="http://www.w3.org/1999/xlink" xmlns:sketch="http://www.bohemiancoding.com/sketch/ns">
    <!-- Generator: Sketch 3.3.2 (12043) - http://www.bohemiancoding.com/sketch -->
    <title>pause</title>
    <desc>Created with Sketch.</desc>
    <defs></defs>
    <g id="Page-1" stroke="none" stroke-width="1" fill="none" fill-rule="evenodd" sketch:type="MSPage">
        <g id="Dashboard" sketch:type="MSArtboardGroup" transform="translate(-790.000000, -430.000000)" fill="#000000">
            <g id="app-4" sketch:type="MSLayerGroup" transform="translate(325.000000, 402.000000)">
                <g id="actionbar" transform="translate(434.000000, 28.000000)" sketch:type="MSShapeGroup">
                    <g id="pause" transform="translate(31.000000, 0.000000)">
                        <path d="M3.75,14.5234375 L3.75,0.47265625 C3.75,0.2109375 3.5390625,0 3.2734375,0 L0.4765625,0 C0.2109375,0 -1.11022302e-15,0.2109375 -1.11022302e-15,0.47265625 L-1.11022302e-15,14.5234375 C-1.11022302e-15,14.7851562 0.2109375,15 0.4765625,15 L3.2734375,15 C3.5390625,15 3.75,14.7890625 3.75,14.5234375 L3.75,14.5234375 Z" id="Shape"></path>
                        <path d="M9.5234375,0 L6.7265625,0 C6.46484375,0 6.25,0.2109375 6.25,0.47265625 L6.25,14.5234375 C6.25,14.7851562 6.4609375,15 6.7265625,15 L9.5234375,15 C9.78515625,15 10,14.7890625 10,14.5234375 L10,0.47265625 C10,0.2109375 9.7890625,0 9.5234375,0 L9.5234375,0 Z" id="Shape"></path>
                    </g>
                </g>
            </g>
        </g>
    </g>
</svg>