<?xml version="1.0" standalone="no"?>
<!DOCTYPE svg PUBLIC "-//W3C//DTD SVG 1.1//EN" "http://www.w3.org/Graphics/SVG/1.1/DTD/svg11.dtd" >
<svg xmlns="http://www.w3.org/2000/svg">
<metadata></metadata>
<defs>
<font id="proxima_nova_cn_rgbold" horiz-adv-x="1115" >
<font-face units-per-em="2048" ascent="1618" descent="-430" />
<missing-glyph horiz-adv-x="483" />
<glyph horiz-adv-x="2048" />
<glyph horiz-adv-x="2048" />
<glyph unicode="&#xd;" horiz-adv-x="2048" />
<glyph unicode=" "  horiz-adv-x="483" />
<glyph unicode="&#x09;" horiz-adv-x="483" />
<glyph unicode="&#xa0;" horiz-adv-x="483" />
<glyph unicode="!" horiz-adv-x="583" d="M415 493h-243l-49 1051h338zM292 -26q-48 0 -89.5 24.5t-65.5 66t-24 88.5q0 73 53 126.5t125.5 53.5t125.5 -53.5t53 -126.5q0 -72 -53 -125.5t-125 -53.5z" />
<glyph unicode="&#x22;" horiz-adv-x="920" d="M318 879h-124q-90 493 -90 535q0 64 44.5 108t108 44t108 -44t44.5 -108q0 -19 -23 -152.5t-46 -258.5zM724 879h-119q-91 493 -91 535q0 64 44 108t106.5 44t106.5 -44t44 -108q0 -19 -22.5 -152.5t-45.5 -258.5z" />
<glyph unicode="#" horiz-adv-x="1241" d="M698 0h-205l114 396h-183l-112 -396h-208l114 396h-181l51 178h181l111 393h-183l46 179h188l110 398h209l-114 -398h183l111 398h207l-114 -398h183l-47 -179h-185l-113 -393h192l-48 -178h-195zM655 574l113 393h-183l-108 -393h178z" />
<glyph unicode="$" horiz-adv-x="1166" d="M495 -232v209q-277 23 -444 197l150 241q53 -62 129 -105t165 -58v401q-49 20 -82.5 35t-78.5 40t-76 49.5t-63.5 60t-52 75t-32.5 92t-13 113.5q0 106 46.5 198t137.5 157t214 86v218h209v-215q221 -24 372 -164l-146 -236q-104 97 -226 121v-367q48 -20 82 -36 t78.5 -41.5t76 -51t64.5 -62t53 -76.5t33 -92.5t13 -112.5q0 -180 -104.5 -304.5t-295.5 -155.5v-216h-209zM789 419q0 26 -8.5 49t-25 42t-37.5 35t-49 31v-317q58 19 89 62t31 98zM415 1137q0 -46 29.5 -79.5t85.5 -64.5v292q-53 -15 -84 -55t-31 -93z" />
<glyph unicode="%" horiz-adv-x="1554" d="M398 799q-102 0 -181 50.5t-121.5 137t-42.5 193.5q0 81 25 152t69.5 123t109 81.5t141.5 29.5q104 0 183.5 -51t121.5 -138.5t42 -196.5q0 -108 -42 -194t-121.5 -136.5t-183.5 -50.5zM444 0h-146l817 1544h146zM1155 -28q-102 0 -181 50.5t-121.5 137.5t-42.5 194 q0 108 42.5 196t121.5 139t181 51q77 0 142.5 -29.5t110 -81.5t69.5 -123t25 -152q0 -108 -42.5 -194.5t-122 -137t-182.5 -50.5zM398 970q46 0 82 25.5t56 73.5t20 111q0 65 -20 114t-56 75.5t-82 26.5q-45 0 -79.5 -26.5t-54 -75.5t-19.5 -114q0 -95 42.5 -152.5 t110.5 -57.5zM1155 144q70 0 113.5 57.5t43.5 152.5q0 65 -20 114t-55.5 75.5t-81.5 26.5q-70 0 -112.5 -59t-42.5 -157q0 -96 42.5 -153t112.5 -57z" />
<glyph unicode="&#x26;" horiz-adv-x="1272" d="M1266 0h-324q-15 18 -46 56.5t-44 54.5q-161 -139 -362 -139q-91 0 -169.5 29t-137.5 83t-92 138.5t-33 189.5q0 68 16 127t41 103.5t64 86.5t77.5 71.5t88.5 60.5q-95 194 -95 329q0 163 106.5 269.5t270.5 106.5q72 0 136.5 -24t112.5 -66t76.5 -104t28.5 -134 q0 -46 -10 -89t-25 -76t-42 -66t-50.5 -56.5t-61.5 -51t-65 -44.5t-69 -43q65 -104 106 -162q96 -138 106 -151q66 139 106 287l223 -101q-82 -234 -181 -382q176 -218 248 -303zM539 192q91 0 181 86q-111 149 -146 201q-55 79 -123 190q-109 -101 -109 -236 q0 -106 57.5 -173.5t139.5 -67.5zM512 1188q0 -82 51 -197q86 53 131.5 107t45.5 128q0 44 -14 76t-38 47.5t-54 15.5q-57 0 -89.5 -46.5t-32.5 -130.5z" />
<glyph unicode="'" horiz-adv-x="513" d="M318 879h-124q-90 493 -90 535q0 64 44.5 108t108 44t108 -44t44.5 -108q0 -19 -23 -152.5t-46 -258.5z" />
<glyph unicode="(" horiz-adv-x="642" d="M599 -347l-190 -114q-147 217 -227 481.5t-80 542t80 541.5t227 481l190 -110q-99 -218 -146.5 -436.5t-47.5 -475.5q0 -256 48 -475t146 -435z" />
<glyph unicode=")" horiz-adv-x="642" d="M44 -347l190 -114q147 217 227 481.5t80 542t-80 541.5t-227 481l-190 -110q99 -218 146.5 -436.5t47.5 -475.5q0 -256 -48 -475t-146 -435z" />
<glyph unicode="*" horiz-adv-x="779" d="M461 854h-141l11 257l-216 -139l-69 123l227 115l-227 119l69 120l216 -139l-11 256h141l-15 -256l216 139l71 -120l-229 -119l229 -115l-71 -123l-216 139z" />
<glyph unicode="+" horiz-adv-x="1027" d="M960 694h-351v-405h-190v405h-352v174h352v386h190v-386h351v-174z" />
<glyph unicode="," horiz-adv-x="585" d="M484 104q0 -124 -62.5 -232.5t-169.5 -183.5l-120 97q38 21 74.5 57t63.5 79.5t35 83.5q-10 -7 -42 -7q-65 0 -107.5 44.5t-42.5 114.5q0 73 51.5 124.5t122.5 51.5q82 0 139.5 -62t57.5 -167z" />
<glyph unicode="-" horiz-adv-x="627" d="M558 442h-489v236h489v-236z" />
<glyph unicode="." horiz-adv-x="583" d="M292 -26q-73 0 -126 54t-53 127q0 71 53 124.5t126 53.5q72 0 126 -53.5t54 -124.5q0 -73 -54 -127t-126 -54z" />
<glyph unicode="/" horiz-adv-x="642" d="M199 -46h-199l444 1636h199z" />
<glyph unicode="0" horiz-adv-x="1248" d="M625 -28q-94 0 -174 31t-139 87.5t-105 131.5t-74 165t-42 186t-14 197.5t14 197.5t42 185.5t74 164t105 130.5t139 87t173.5 31t174 -31t139.5 -87t104.5 -130.5t74 -164t42.5 -185.5t14 -197q0 -87 -10 -170t-31.5 -162.5t-53 -149t-76.5 -128.5t-100 -100.5t-126 -65 t-151 -23.5zM625 247q66 0 112.5 38.5t72.5 111.5t37.5 164t11.5 209.5t-11.5 209t-37.5 163t-72.5 111t-112.5 38.5t-112.5 -38.5t-72.5 -111t-37.5 -163t-11.5 -209t11.5 -209.5t37.5 -164t72.5 -111.5t112.5 -38.5z" />
<glyph unicode="1" horiz-adv-x="876" d="M740 0h-309v1144l-232 -241l-181 187l454 454h268v-1544z" />
<glyph unicode="2" horiz-adv-x="1212" d="M1113 0h-1011v252q118 113 191.5 184t152 148.5t122 124.5t88 99t65.5 85t39 70.5t23.5 67.5t5.5 64q0 90 -59.5 143.5t-148.5 53.5q-198 0 -329 -174l-188 194q94 124 228 189t296 65q148 0 264.5 -55.5t184 -162.5t67.5 -249q0 -71 -21 -141.5t-60 -140t-109 -157 t-151.5 -175.5t-204.5 -212h555v-273z" />
<glyph unicode="3" horiz-adv-x="1191" d="M579 -28q-178 0 -317 69.5t-216 181.5l188 194q40 -51 92 -89t113.5 -59.5t125.5 -21.5q117 0 177.5 56.5t60.5 149.5q0 194 -253 194q-118 0 -141 -2v278q23 -2 135 -2q111 0 174.5 45.5t63.5 135.5q0 93 -61 141.5t-165 48.5q-91 0 -171 -39.5t-142 -113.5l-176 180 q84 118 215.5 182.5t296.5 64.5q153 0 267 -47t178 -142t64 -229q0 -130 -85 -228t-206 -123q58 -9 114 -39t100.5 -76.5t72 -113.5t27.5 -142q0 -203 -145.5 -328.5t-386.5 -125.5z" />
<glyph unicode="4" horiz-adv-x="1193" d="M988 0h-310v329h-629v261l543 954h396v-943h158v-272h-158v-329zM678 601v625l-351 -625h351z" />
<glyph unicode="5" horiz-adv-x="1226" d="M611 -28q-340 0 -521 243l188 200q128 -168 321 -168q109 0 172.5 70t63.5 173q0 76 -26 131t-75.5 83.5t-119.5 28.5q-39 0 -73 -7t-66 -22t-61.5 -39t-57.5 -58l-224 60v877h930v-274h-620v-395q46 57 122 92t163 35q89 0 166 -33.5t135 -96t91.5 -159t33.5 -214.5 q0 -92 -24.5 -174t-71.5 -146.5t-112.5 -111t-150.5 -71t-183 -24.5z" />
<glyph unicode="6" horiz-adv-x="1221" d="M647 -28q-85 0 -159.5 21.5t-132 61t-104 96t-79 124.5t-54 148.5t-31.5 166t-10 178.5q0 175 41 321t118 252t195 165.5t265 59.5q121 0 224.5 -44t172.5 -122l-151 -229q-49 60 -106.5 90.5t-137.5 30.5q-92 0 -163.5 -64t-108.5 -168.5t-37 -228.5v-28q47 85 137 141 t196 56q88 0 165.5 -33t137.5 -94.5t95 -158.5t35 -217q0 -148 -63.5 -267.5t-180 -188.5t-264.5 -69zM629 247q51 0 92.5 21.5t66.5 56t38.5 76t13.5 85.5q0 65 -18 114.5t-49.5 77.5t-69 41.5t-80.5 13.5q-71 0 -131 -43t-101 -114q3 -47 11.5 -91t26.5 -88.5t43.5 -76.5 t66 -52.5t90.5 -20.5z" />
<glyph unicode="7" horiz-adv-x="1087" d="M558 0h-335l471 1270h-645v274h995v-215z" />
<glyph unicode="8" horiz-adv-x="1217" d="M609 -28q-157 0 -276.5 47.5t-188.5 144.5t-69 232t86 244t212 157q-46 16 -86 40t-75.5 57.5t-61.5 73.5t-40.5 90t-14.5 106q0 82 29 150t78.5 114t116 77.5t139.5 46t151 14.5t150.5 -14.5t139 -46t116 -77.5t78.5 -114t29 -150q0 -69 -22.5 -129.5t-62 -106 t-89 -78.5t-106.5 -53q60 -23 114 -62.5t96 -90.5t67 -115.5t25 -132.5q0 -134 -70 -231t-190 -145t-275 -48zM609 907q21 5 44.5 14t52 26t51 38.5t38 54t15.5 69.5q0 85 -55 134t-146 49q-61 0 -107.5 -22t-71.5 -63.5t-25 -97.5q0 -37 16 -69.5t39 -54t52.5 -38.5t53 -26 t43.5 -14zM609 247q95 0 158.5 51t63.5 142q0 41 -17.5 78.5t-43 63t-57 45.5t-57.5 30t-47 14q-21 -4 -48 -14t-58 -30t-56.5 -45.5t-43 -63t-17.5 -78.5q0 -61 30 -105.5t79.5 -66t113.5 -21.5z" />
<glyph unicode="9" horiz-adv-x="1221" d="M525 -26q-120 0 -223 44.5t-172 122.5l150 230q49 -61 106.5 -91t136.5 -30q95 0 167 64.5t107.5 167.5t35.5 227q0 18 -2 29q-46 -84 -136 -140.5t-196 -56.5q-88 0 -166 33t-137.5 95t-94 158.5t-34.5 216.5q0 148 63 268t179.5 189t264.5 69q120 0 216.5 -42t162 -115 t109.5 -175t64 -217.5t20 -247.5q0 -174 -41.5 -320.5t-118.5 -253t-195 -166t-266 -59.5zM597 808q72 0 132.5 43t101.5 114q-3 48 -11.5 91.5t-26 88t-43 76.5t-65.5 52.5t-91 20.5q-41 0 -76.5 -14t-60 -37.5t-42 -54.5t-25.5 -64.5t-8 -68.5q0 -65 18 -114t49 -77.5 t68 -42t80 -13.5z" />
<glyph unicode=":" horiz-adv-x="570" d="M292 775q-73 0 -126 54t-53 127t53 126t126 53t126.5 -53t53.5 -126t-54 -127t-126 -54zM292 -26q-73 0 -126 54t-53 127q0 71 53 124.5t126 53.5q72 0 126 -53.5t54 -124.5q0 -73 -54 -127t-126 -54z" />
<glyph unicode=";" horiz-adv-x="583" d="M292 775q-73 0 -126 54t-53 127t53 126t126 53t126.5 -53t53.5 -126t-54 -127t-126 -54zM484 111q0 -122 -62.5 -232t-169.5 -184l-120 99q59 33 110.5 95.5t62.5 121.5q-20 -6 -42 -6q-64 0 -107 45t-43 114q0 73 51.5 124.5t122.5 51.5q82 0 139.5 -62t57.5 -167z" />
<glyph unicode="&#x3c;" horiz-adv-x="1027" d="M960 282l-893 394v199l893 393v-208l-691 -287l691 -283v-208z" />
<glyph unicode="=" horiz-adv-x="1027" d="M960 905h-893v173h893v-173zM960 468h-893v173h893v-173z" />
<glyph unicode="&#x3e;" horiz-adv-x="1027" d="M960 676l-893 -394v208l690 283l-690 287v208l893 -393v-199z" />
<glyph unicode="?" horiz-adv-x="906" d="M345 468q-67 73 -67 203q0 54 15.5 100.5t40 80.5t54 65t59 58.5t54 54.5t40 60t15.5 69q0 57 -41.5 97t-114.5 40q-124 0 -208 -108l-152 194q77 89 184 136.5t229 47.5q189 0 302 -97.5t113 -251.5q0 -61 -18 -116t-47 -95t-64.5 -77t-70.5 -69.5t-64 -64.5t-47 -69.5 t-18 -78.5q0 -28 12 -55.5t30 -45.5zM453 -26q-73 0 -126.5 54t-53.5 127q0 47 24.5 88t66.5 65.5t89 24.5q73 0 126 -53.5t53 -124.5q0 -73 -53 -127t-126 -54z" />
<glyph unicode="@" horiz-adv-x="1647" d="M722 -162q-143 0 -263.5 51.5t-203 142.5t-128.5 219t-46 279q0 123 32.5 243.5t89.5 224t138 193t176 152.5t206.5 98.5t225.5 35.5q136 0 251 -47.5t195 -131.5t124.5 -201.5t44.5 -254.5q0 -141 -36.5 -264t-96 -205t-134.5 -129t-153 -47q-60 0 -106.5 21.5t-73 58 t-34.5 83.5l-2 17q-18 -25 -38 -48t-42.5 -43.5t-48 -36.5t-53 -28t-58 -18t-61.5 -6q-128 0 -208.5 88.5t-80.5 253.5q0 115 38.5 227t103 197t154.5 137.5t188 52.5q84 0 142.5 -41.5t86.5 -111.5l25 120h247l-122 -576q-4 -23 -4 -56q0 -102 75 -102q23 0 49.5 18 t52.5 56t47 90t34.5 127.5t13.5 162.5q0 167 -65 291.5t-184 191t-278 66.5q-102 0 -201.5 -33.5t-183.5 -91.5t-155.5 -139.5t-121.5 -175t-78 -200.5t-28 -215q0 -85 17 -164t49.5 -147t81.5 -123.5t110 -94.5t138 -60.5t163 -21.5q104 0 197 33.5t188 96.5l46 -69 q-212 -146 -442 -146zM738 393q120 0 216 151l62 291q-16 50 -52 85.5t-92 35.5q-61 0 -115 -36t-88.5 -92.5t-54.5 -124t-20 -131.5q0 -82 37 -130.5t107 -48.5z" />
<glyph unicode="A" horiz-adv-x="1288" d="M1292 0h-336l-72 273h-479l-74 -273h-336l464 1544h372zM824 546l-181 671l-177 -671h358z" />
<glyph unicode="B" horiz-adv-x="1292" d="M799 0h-662v1544h640q102 0 181.5 -32t129 -86.5t75 -124.5t25.5 -151q0 -139 -70.5 -232.5t-180.5 -120.5q118 -20 196.5 -128t78.5 -250q0 -90 -25 -165t-75 -132.5t-130 -89.5t-183 -32zM704 921q81 0 123.5 47t42.5 129q0 39 -10.5 70.5t-31 54.5t-52 35.5 t-72.5 12.5h-258v-349h258zM715 273q87 0 134 49t47 139q0 83 -47.5 136t-133.5 53h-269v-377h269z" />
<glyph unicode="C" horiz-adv-x="1294" d="M733 -28q-149 0 -272.5 59t-207.5 164.5t-130 253t-46 322.5t46 322.5t130 253t207.5 164.5t272.5 59q353 0 517 -371l-257 -113q-36 96 -103 152t-157 56q-104 0 -181.5 -67.5t-118 -185.5t-40.5 -270t40.5 -270t118 -186t181.5 -68q92 0 160 62t103 163l256 -112 q-163 -388 -519 -388z" />
<glyph unicode="D" horiz-adv-x="1385" d="M636 0h-499v1544h497q159 0 288 -58t214 -161t130.5 -244.5t45.5 -309.5q0 -169 -45.5 -311t-130.5 -244t-213 -159t-287 -57zM634 273q85 0 153.5 36.5t113.5 102t68.5 157t23.5 202.5q0 234 -92 366.5t-265 132.5h-190v-997h188z" />
<glyph unicode="E" d="M1023 0h-886v1544h886v-274h-577v-349h561v-271h-561v-377h577v-273z" />
<glyph unicode="F" horiz-adv-x="1096" d="M446 0h-309v1544h886v-274h-577v-349h561v-271h-561v-650z" />
<glyph unicode="G" horiz-adv-x="1362" d="M733 -28q-196 0 -345.5 99.5t-230 280.5t-80.5 419t80.5 419.5t230 280.5t345.5 99q97 0 180.5 -28t146.5 -78.5t109.5 -112.5t80.5 -139l-252 -115q-40 88 -107 142.5t-158 54.5q-152 0 -246 -138.5t-94 -384.5t94 -385t246 -139q25 0 50 3.5t47 10t42.5 15.5t38.5 19.5 t33.5 22.5t27.5 24v232h-299v274h588v-630q-213 -246 -528 -246z" />
<glyph unicode="H" horiz-adv-x="1411" d="M1275 0h-310v658h-519v-658h-309v1544h309v-614h519v614h310v-1544z" />
<glyph unicode="I" horiz-adv-x="583" d="M446 0h-309v1544h309v-1544z" />
<glyph unicode="J" horiz-adv-x="969" d="M351 -28q-207 0 -335 118l112 246q84 -89 192 -89q95 0 149 56t54 156v1085h310v-1095q0 -121 -35.5 -213t-100 -149.5t-151.5 -86t-195 -28.5z" />
<glyph unicode="K" horiz-adv-x="1283" d="M1283 0h-369l-356 601l-112 -170v-431h-309v1544h309v-702l438 702h361l-495 -727z" />
<glyph unicode="L" horiz-adv-x="1020" d="M960 0h-830v1544h310v-1271h520v-273z" />
<glyph unicode="M" horiz-adv-x="1705" d="M1570 0h-309v1040l-349 -1040h-119l-347 1040v-1040h-309v1544h413l302 -908l305 908h413v-1544z" />
<glyph unicode="N" horiz-adv-x="1409" d="M1272 0h-296l-530 942v-942h-309v1544h314l512 -908v908h309v-1544z" />
<glyph unicode="O" horiz-adv-x="1446" d="M724 -28q-100 0 -189 27t-159.5 77.5t-127 122t-94 160t-57.5 193t-20 219.5q0 172 44.5 319t126 253t204.5 166.5t272 60.5t271.5 -60.5t204.5 -166.5t127 -253t45 -319.5t-45 -319t-127 -253t-204.5 -166.5t-271.5 -60zM724 247q103 0 178.5 69.5t113 187t37.5 267.5 t-37.5 267.5t-113 186.5t-178.5 69q-104 0 -180 -69t-113.5 -186t-37.5 -268q0 -150 37.5 -267t113.5 -187t180 -70z" />
<glyph unicode="P" horiz-adv-x="1237" d="M446 0h-309v1544h569q117 0 210 -40t151.5 -108.5t89.5 -156.5t31 -188t-31 -188t-89.5 -156t-151.5 -107.5t-210 -39.5h-260v-560zM669 831q90 0 145.5 60.5t55.5 159.5q0 100 -55.5 159.5t-145.5 59.5h-223v-439h223z" />
<glyph unicode="Q" horiz-adv-x="1446" d="M724 -28q-100 0 -189 27t-159.5 77.5t-127 122t-94 160t-57.5 193t-20 219.5q0 172 44.5 319t126 253t204.5 166.5t272 60.5t271.5 -60.5t204.5 -166.5t127 -253t45 -319q0 -130 -25.5 -246.5t-74.5 -213t-119 -167.5l62 -100l-215 -130l-61 95q-106 -37 -215 -37z M724 247q32 0 62 7l-150 243l216 132l127 -208q74 139 74 350q0 150 -37.5 267.5t-113 186.5t-178.5 69q-104 0 -180 -69t-113.5 -186t-37.5 -268q0 -150 37.5 -267t113.5 -187t180 -70z" />
<glyph unicode="R" horiz-adv-x="1279" d="M1199 0h-345l-238 558h-170v-558h-309v1544h576q140 0 248.5 -62.5t167.5 -173.5t59 -253q0 -64 -11.5 -121.5t-31 -102t-45.5 -81t-57.5 -63t-63 -45t-65.5 -28.5zM669 831q90 0 145.5 60t55.5 160t-55.5 159.5t-145.5 59.5h-223v-439h223z" />
<glyph unicode="S" horiz-adv-x="1157" d="M567 -28q-329 0 -527 202l150 241q67 -76 165.5 -122t209.5 -46q102 0 157 48.5t55 123.5q0 34 -15 62.5t-34.5 48t-61 42t-69 34.5t-83.5 34q-44 18 -67 28t-65 29.5t-66 34.5t-60 40t-56.5 48t-45 56t-37.5 68t-22 79.5t-9 94.5q0 91 35 173t98.5 144t161 98.5 t213.5 36.5q94 0 180 -20.5t158.5 -59t131.5 -92.5l-145 -236q-68 65 -154 98.5t-177 33.5q-28 0 -53 -5.5t-45.5 -15t-37 -23.5t-27.5 -31.5t-17 -38t-6 -43.5q0 -39 24 -70.5t63.5 -55.5t91.5 -46.5t109 -46.5t114.5 -51.5t109.5 -66.5t91.5 -87t63.5 -117t24 -152 q0 -81 -21.5 -152.5t-65 -130t-106 -101t-147.5 -65.5t-186 -23z" />
<glyph unicode="T" horiz-adv-x="1100" d="M706 0h-310v1270h-345v274h1000v-274h-345v-1270z" />
<glyph unicode="U" horiz-adv-x="1413" d="M706 -28q-263 0 -416 148.5t-153 413.5v1010h312v-1012q0 -138 67 -212.5t190.5 -74.5t191 74.5t67.5 212.5v1012h312v-1010q0 -266 -153 -414t-418 -148z" />
<glyph unicode="V" horiz-adv-x="1288" d="M831 0h-372l-464 1544h336l312 -1176l313 1176h336z" />
<glyph unicode="W" horiz-adv-x="1780" d="M1414 0h-321l-203 1025l-201 -1025h-321l-354 1544h331l201 -1069l225 1069h243l222 -1069l201 1069h331z" />
<glyph unicode="X" horiz-adv-x="1290" d="M1294 0h-357l-292 546l-294 -546h-356l456 789l-428 755h357l265 -517l265 517h358l-431 -753z" />
<glyph unicode="Y" horiz-adv-x="1250" d="M782 0h-310v636l-481 908h342l294 -621l292 621h342l-479 -908v-636z" />
<glyph unicode="Z" horiz-adv-x="1124" d="M1044 0h-960v257l563 1013h-563v274h943v-250l-572 -1021h589v-273z" />
<glyph unicode="[" horiz-adv-x="559" d="M519 -440h-424v2010h424v-186h-223v-1638h223v-186z" />
<glyph unicode="\" horiz-adv-x="642" d="M444 -46l-444 1636h199l444 -1636h-199z" />
<glyph unicode="]" horiz-adv-x="559" d="M466 -440h-424v186h221v1638h-221v186h424v-2010z" />
<glyph unicode="^" horiz-adv-x="899" d="M857 771h-204l-204 567l-202 -567h-203l305 773h204z" />
<glyph unicode="_" horiz-adv-x="976" d="M983 -278h-990v185h990v-185z" />
<glyph unicode="`" horiz-adv-x="497" d="M497 1287h-185l-312 333h247z" />
<glyph unicode="a" horiz-adv-x="1113" d="M988 0h-277v115q-47 -68 -128.5 -105.5t-170.5 -37.5q-66 0 -128 24.5t-110.5 70.5t-77.5 117.5t-29 157.5q0 89 28.5 160t77.5 114.5t110 66.5t129 23q92 0 173 -35.5t126 -100.5v143q0 61 -25.5 105.5t-73 68t-113.5 23.5q-148 0 -274 -124l-107 195q83 82 199.5 123.5 t235.5 41.5q74 0 138 -13.5t119.5 -43t94 -74.5t61 -111t22.5 -149v-755zM519 159q62 0 112.5 25.5t79.5 76.5v154q-29 51 -80 77.5t-112 26.5q-78 0 -126 -50.5t-48 -130.5t48 -129.5t126 -49.5z" />
<glyph unicode="b" horiz-adv-x="1172" d="M402 347q20 -37 51 -66.5t69 -46t77 -16.5q105 0 161.5 94t56.5 248q0 74 -14 136t-41 107.5t-68.5 71.5t-94.5 26q-39 0 -77 -18t-69 -47.5t-51 -67.5v-421zM402 0h-277v1544h277v-570q50 85 126 128.5t161 43.5q125 0 219 -72t145 -204.5t51 -309.5q0 -273 -113 -430.5 t-302 -157.5q-84 0 -160 44t-127 125v-141z" />
<glyph unicode="c" horiz-adv-x="980" d="M581 -28q-152 0 -269 75.5t-181 209.5t-64 303t63.5 302.5t181.5 208.5t269 75q84 0 156 -22t119.5 -54t80.5 -74l-134 -193q-76 98 -189 98q-118 0 -189 -95.5t-71 -245.5q0 -149 71 -245.5t189 -96.5q111 0 189 100l134 -195q-33 -43 -80.5 -75.5t-119.5 -54 t-156 -21.5z" />
<glyph unicode="d" horiz-adv-x="1172" d="M1046 0h-278v141q-50 -81 -125.5 -125t-158.5 -44q-191 0 -304 157t-113 431q0 177 51.5 309.5t146 204.5t219.5 72q85 0 160.5 -43.5t123.5 -128.5v570h278v-1544zM574 218q57 0 111.5 37.5t82.5 93.5v422q-28 54 -83 92t-111 38q-71 0 -121.5 -45t-74.5 -121t-24 -175 q0 -153 57 -247.5t163 -94.5z" />
<glyph unicode="e" d="M592 -28q-157 0 -276.5 73.5t-184 207t-64.5 307.5q0 122 35.5 229t99.5 186t159.5 125t210.5 46q76 0 143 -20.5t119.5 -58t94 -90.5t69 -119.5t41.5 -144.5t14 -165v-80h-706q11 -119 81 -194t192 -75q65 0 132.5 29.5t113.5 81.5l130 -171q-74 -80 -181.5 -123.5 t-222.5 -43.5zM786 662q0 37 -7.5 71.5t-24 68.5t-41 59.5t-62 41.5t-84.5 16q-32 0 -61 -8.5t-50.5 -22.5t-39.5 -34t-30 -42.5t-20.5 -48t-13 -50.5t-5.5 -51h439z" />
<glyph unicode="f" horiz-adv-x="663" d="M453 0h-277v875h-143v243h143v76q0 177 90 274.5t248 97.5q73 0 138 -20t105 -60l-86 -197q-42 42 -101 42q-27 0 -48.5 -9t-37 -26t-23.5 -43t-8 -59v-76h183v-243h-183v-875z" />
<glyph unicode="g" horiz-adv-x="1170" d="M530 -453q-128 0 -228.5 34t-186.5 112l110 212q120 -123 291 -123q50 0 94 14t80 43.5t57 80t21 117.5v146q-51 -82 -126.5 -128t-157.5 -46q-193 0 -305 148.5t-112 418.5q0 267 112 418.5t305 151.5q84 0 159 -43.5t125 -128.5v144h278v-1081q0 -111 -30 -198 t-79 -141t-117.5 -89t-139.5 -48.5t-150 -13.5zM574 254q56 0 111 37.5t83 92.5v387q-28 54 -83 92t-111 38q-107 0 -163.5 -87.5t-56.5 -237.5q0 -149 56.5 -235.5t163.5 -86.5z" />
<glyph unicode="h" horiz-adv-x="1159" d="M1034 0h-277v738q0 85 -38 124t-110 39q-63 0 -118 -41.5t-86 -97.5v-762h-280v1544h280v-572q46 71 136.5 122.5t191.5 51.5q153 0 227 -79t74 -225v-842z" />
<glyph unicode="i" horiz-adv-x="526" d="M263 1243q-68 0 -117 48.5t-49 117.5q0 70 49 120t117 50q46 0 85 -23t62 -62t23 -84.5t-23 -84t-62 -60.5t-85 -22zM402 0h-277v1118h277v-1118z" />
<glyph unicode="j" horiz-adv-x="526" d="M263 1243q-68 0 -117 48.5t-49 117.5q0 70 49 120t117 50q46 0 85 -23t62 -62t23 -84.5t-23 -84t-62 -60.5t-85 -22zM44 -453q-71 0 -117 15.5t-89 51.5l67 212q44 -44 104 -44q35 0 61 16t40.5 51.5t14.5 88.5v1180h277v-1180q0 -391 -358 -391z" />
<glyph unicode="k" horiz-adv-x="1089" d="M1083 0h-326l-234 440l-121 -167v-273h-277v1544h277v-930l346 504h323l-356 -502z" />
<glyph unicode="l" horiz-adv-x="526" d="M402 0h-277v1544h277v-1544z" />
<glyph unicode="m" horiz-adv-x="1725" d="M1601 0h-278v750q0 151 -129 151q-59 0 -110 -42t-82 -97v-762h-278v750q0 151 -130 151q-40 0 -79.5 -22t-66.5 -52t-46 -65v-762h-277v1118h277v-146q17 29 49 59t73 56t93 42.5t103 16.5q107 0 177.5 -50t93.5 -145q41 78 132.5 136.5t192.5 58.5q136 0 210.5 -73 t74.5 -223v-850z" />
<glyph unicode="n" horiz-adv-x="1159" d="M1034 0h-277v733q0 168 -148 168q-44 0 -86 -22t-70.5 -51.5t-50.5 -65.5v-762h-277v1118h277v-146q49 71 139.5 122.5t191.5 51.5q152 0 226.5 -81t74.5 -228v-837z" />
<glyph unicode="o" horiz-adv-x="1151" d="M576 -28q-97 0 -179.5 31t-142.5 85.5t-103 128.5t-63.5 161t-20.5 182.5t20.5 182t63.5 160t103 128t142.5 85t179.5 30.5q98 0 181 -30.5t143 -85t102.5 -128t63 -160t20.5 -182t-20.5 -182.5t-63 -161t-102.5 -128.5t-143 -85.5t-181 -31zM576 218q74 0 124.5 48 t73.5 123t23 171q0 71 -13.5 131t-39.5 107.5t-69 75t-99 27.5q-54 0 -97 -27.5t-69.5 -74.5t-40 -107.5t-13.5 -131.5q0 -95 23 -170.5t74 -123.5t123 -48z" />
<glyph unicode="p" horiz-adv-x="1168" d="M689 -28q-85 0 -161 43t-126 129v-570h-277v1544h277v-142q51 82 127 126t160 44q191 0 303 -156.5t112 -429.5q0 -271 -112.5 -429.5t-302.5 -158.5zM599 218q104 0 161 95t57 247q0 153 -57 247t-161 94q-58 0 -112 -36.5t-85 -93.5v-422q19 -37 50 -67t69.5 -47 t77.5 -17z" />
<glyph unicode="q" horiz-adv-x="1168" d="M572 218q57 0 111.5 37.5t82.5 93.5v422q-28 56 -82.5 93t-111.5 37q-105 0 -163 -94t-58 -247q0 -152 58 -247t163 -95zM481 -28q-191 0 -302.5 158t-111.5 430q0 274 111.5 430t302.5 156q85 0 160.5 -44t124.5 -126v142h278v-1544h-278v570q-50 -86 -125 -129 t-160 -43z" />
<glyph unicode="r" horiz-adv-x="740" d="M402 0h-277v1118h277v-153q48 76 134 128.5t173 52.5v-274q-37 9 -66 9q-66 0 -136 -39.5t-105 -96.5v-745z" />
<glyph unicode="s" horiz-adv-x="954" d="M472 -28q-134 0 -247 43t-185 117l117 197q35 -37 85 -67.5t109.5 -50t114.5 -19.5q80 0 123 31.5t43 86.5q0 26 -15.5 47.5t-42 35.5t-62 28t-75.5 25t-82 27t-81.5 34t-75 46.5t-62 62.5t-42 84t-15.5 110q0 69 27 129t77.5 106.5t128.5 73.5t174 27q78 0 150.5 -18.5 t131.5 -50t109 -75.5l-111 -192q-45 49 -119.5 82t-156.5 33q-66 0 -108 -30t-42 -76q0 -23 13 -40.5t44 -33t55 -24.5t74 -24q48 -15 73.5 -24t71 -28t72 -36.5t61 -47.5t52.5 -62.5t31.5 -78.5t13.5 -100q0 -153 -117 -250.5t-312 -97.5z" />
<glyph unicode="t" horiz-adv-x="687" d="M459 -28q-146 0 -216.5 74t-70.5 223v606h-144v243h144v306h279v-306h183v-243h-183v-542q0 -54 20.5 -84.5t60.5 -30.5q11 0 21 1.5t19 4.5t17.5 7t15 8.5t11.5 10.5l55 -213q-73 -65 -212 -65z" />
<glyph unicode="u" horiz-adv-x="1159" d="M1034 0h-279v141q-49 -70 -137.5 -119.5t-191.5 -49.5q-152 0 -226.5 78.5t-74.5 225.5v842h277v-738q0 -85 38 -123.5t110 -38.5q65 0 119.5 39t85.5 94v767h279v-1118z" />
<glyph unicode="v" horiz-adv-x="1040" d="M669 0h-298l-376 1118h297l227 -785l231 785h296z" />
<glyph unicode="w" horiz-adv-x="1601" d="M1294 0h-294l-199 759l-202 -759h-292l-300 1118h287l178 -758l197 758h254l204 -758l178 758h289z" />
<glyph unicode="x" horiz-adv-x="1018" d="M1016 0h-303l-203 373l-205 -373h-300l331 570l-316 548h304l186 -352l184 352h302l-313 -548z" />
<glyph unicode="y" horiz-adv-x="1040" d="M102 -435l42 245q28 -18 68 -18q98 0 126 80l37 108l-380 1138h297l227 -782l231 782h296l-441 -1308q-21 -61 -48.5 -106t-59.5 -74.5t-73.5 -48t-85.5 -26t-100 -8.5q-19 0 -44.5 2t-51.5 6.5t-40 9.5z" />
<glyph unicode="z" horiz-adv-x="945" d="M868 0h-787v208l423 667h-423v243h778v-199l-428 -676h437v-243z" />
<glyph unicode="{" horiz-adv-x="585" d="M546 -440h-102q-81 0 -152.5 39t-116.5 113t-45 168v451q0 68 -31 111.5t-90 43.5v157q59 0 90 44t31 112v451q0 93 45 167t116.5 113.5t152.5 39.5h102v-186h-102q-47 0 -80 -38t-33 -96v-479q0 -161 -106 -206q106 -45 106 -207v-478q0 -58 33 -96t80 -38h102v-186z " />
<glyph unicode="|" horiz-adv-x="457" d="M322 -46h-185v1636h185v-1636z" />
<glyph unicode="}" horiz-adv-x="585" d="M40 -440v186h101q48 0 80.5 38t32.5 96v478q0 162 106 207q-106 45 -106 206v479q0 58 -32.5 96t-80.5 38h-101v186h101q83 0 154 -39.5t115.5 -113.5t44.5 -167v-451q0 -68 31.5 -112t89.5 -44v-157q-58 0 -89.5 -43.5t-31.5 -111.5v-451q0 -94 -44.5 -168t-115.5 -113 t-154 -39h-101z" />
<glyph unicode="~" horiz-adv-x="1073" d="M824 1544l190 -18q-3 -47 -7 -86.5t-10.5 -87t-15 -86.5t-22 -80.5t-30 -74t-39.5 -62t-50 -49t-62.5 -31t-75.5 -11.5q-49 0 -87.5 18t-62 46.5t-42.5 65.5t-29.5 75.5t-21.5 75.5t-20.5 66t-26 47t-37.5 18q-56 0 -82 -100.5t-41 -313.5l-192 18q4 53 9 97.5t13 97.5 t20.5 96t29 87t40 76.5t52.5 59t67.5 40t83.5 13.5q44 0 79.5 -14t58.5 -38t41.5 -55t30 -65.5t21.5 -69t19 -65.5t19 -55t24.5 -38t33.5 -14q55 0 81 100t41 317z" />
<glyph unicode="&#xa1;" horiz-adv-x="583" d="M123 -426l47 1051h242l49 -1051h-338zM111 965q0 71 54 125t127 54q72 0 125 -53.5t53 -125.5q0 -36 -14.5 -69t-38.5 -57.5t-57 -39.5t-68 -15q-73 0 -127 54t-54 127z" />
<glyph unicode="&#xa2;" horiz-adv-x="980" d="M662 -232h-201v218q-181 42 -287.5 197.5t-106.5 376.5q0 146 48 266t137.5 199t208.5 106v176h201v-166q174 -23 275 -145l-134 -193q-63 77 -141 93v-673q76 15 141 95l134 -195q-93 -121 -275 -146v-209zM354 560q0 -103 33.5 -182.5t96.5 -120.5v604 q-63 -41 -96.5 -120t-33.5 -181z" />
<glyph unicode="&#xa3;" horiz-adv-x="1128" d="M60 632v178h137q-43 72 -67 139.5t-24 147.5q0 101 43 190t113 149.5t160.5 95t184.5 34.5q172 0 291.5 -74.5t168.5 -219.5l-248 -124q-22 77 -69.5 121.5t-115.5 44.5q-52 0 -95.5 -26.5t-70 -77.5t-26.5 -117q0 -31 4.5 -60.5t9.5 -50.5t17 -48t19 -40.5t23 -43 t22 -40.5h249v-178h-192q5 -36 5 -58q0 -79 -39 -156.5t-99 -121.5q46 19 99 19q40 0 77 -10.5t61 -23t58 -23.5t68 -11q41 0 78 11.5t62 28.5t41 37l101 -245q-42 -47 -121 -77t-179 -30q-63 0 -118.5 15t-89 33.5t-77.5 33.5t-86 15q-100 0 -234 -85l-95 213 q99 55 158.5 133.5t59.5 164.5q0 62 -28 137h-236z" />
<glyph unicode="&#xa5;" horiz-adv-x="1250" d="M782 0h-310v269h-417v173h417v194h-417v174h325l-389 734h342l294 -621l292 621h342l-389 -734h322v-174h-412v-194h412v-173h-412v-269z" />
<glyph unicode="&#xa7;" horiz-adv-x="965" d="M901 740q0 -58 -20.5 -111.5t-62.5 -99t-100 -76.5q90 -52 136.5 -121.5t46.5 -169.5q0 -103 -56 -183t-153.5 -123.5t-219.5 -43.5q-265 0 -430 165l115 180q52 -56 134.5 -99.5t169.5 -43.5q79 0 125 37t46 97q0 31 -15.5 56t-42 42t-62 33t-75.5 29t-82 30t-81.5 35 t-75 46t-62 61t-42 81t-15.5 106q0 100 59 174t147 104q-71 35 -117 80.5t-67.5 100.5t-21.5 122q0 138 111.5 228t286.5 90q254 0 398 -148l-111 -164q-55 57 -124.5 86.5t-142.5 29.5t-115 -32t-42 -88q0 -29 16 -51.5t42.5 -38.5t62.5 -31t76.5 -27.5t83 -29.5t83 -35.5 t76 -46.5t62.5 -61.5t43 -82t16 -106.5zM638 683q0 71 -41.5 114.5t-110.5 70.5q-153 -36 -153 -157q0 -66 48.5 -107t143.5 -76q113 50 113 155z" />
<glyph unicode="&#xa8;" horiz-adv-x="661" d="M698 1411.5q0 -62.5 -43.5 -106.5t-106.5 -44q-61 0 -105.5 44t-44.5 106.5t44.5 106.5t105.5 44q63 0 106.5 -44t43.5 -106.5zM261 1411q0 -41 -19.5 -75.5t-53.5 -54.5t-75 -20q-63 0 -106.5 44t-43.5 106.5t43.5 106.5t106.5 44q62 0 105 -44t43 -107z" />
<glyph unicode="&#xa9;" horiz-adv-x="1800" d="M1698 773q0 -162 -63 -310t-169.5 -255t-254.5 -170.5t-310 -63.5t-310 63.5t-255 170.5t-170.5 255t-63.5 310q0 163 63.5 311t170.5 254.5t255 170t310 63.5t310 -63.5t254.5 -170t169.5 -254.5t63 -311zM1616 773q0 145 -57 277.5t-153 228t-228.5 152.5t-276.5 57 q-97 0 -189.5 -25.5t-171 -72t-145 -112.5t-112.5 -144.5t-72 -171t-26 -189.5q0 -145 57 -277.5t153 -228.5t228.5 -152.5t277 -56.5t277 56.5t228.5 152.5t153 228.5t57 277.5zM1185 510l72 -68q-65 -75 -152.5 -116t-192.5 -41q-99 0 -187.5 37t-153.5 101.5t-102.5 156 t-37.5 195.5t37.5 195.5t102.5 155.5t153.5 100.5t187.5 36.5q207 0 340 -154l-69 -69q-45 61 -117.5 97t-153.5 36q-76 0 -145 -29.5t-121 -80.5t-83 -126t-31 -162q0 -85 31 -160t82.5 -127t121 -82.5t145.5 -30.5q82 0 155 36.5t118 98.5z" />
<glyph unicode="&#xab;" horiz-adv-x="1052" d="M983 146h-235l-289 417l289 409h235l-289 -409zM594 146h-236l-289 417l289 409h236l-289 -409z" />
<glyph unicode="&#xad;" horiz-adv-x="627" d="M558 442h-489v236h489v-236z" />
<glyph unicode="&#xae;" horiz-adv-x="1142" d="M1062 1076q0 -100 -38.5 -191t-104 -156.5t-156.5 -104.5t-191 -39t-191 39t-156.5 104.5t-104.5 156.5t-39 191t39 191t104.5 156.5t156.5 104t191 38.5q81 0 156 -24.5t135 -69.5t105 -105t69.5 -135.5t24.5 -155.5zM991 1076q0 115 -56 211.5t-152.5 152t-210.5 55.5 t-210.5 -55.5t-152.5 -152t-56 -211.5q0 -113 56 -209.5t152.5 -152.5t210.5 -56t210.5 56t152.5 152.5t56 209.5zM803 793h-97l-146 223h-97v-223h-79v563h230q74 0 128.5 -47.5t54.5 -123.5q0 -35 -12 -65t-29.5 -48t-38 -31t-37 -18t-27.5 -5zM715 1185q0 45 -31.5 74.5 t-69.5 29.5h-151v-203h151q38 0 69.5 29t31.5 70z" />
<glyph unicode="&#xb4;" horiz-adv-x="497" d="M497 1620l-312 -333h-185l250 333h247z" />
<glyph unicode="&#xb8;" horiz-adv-x="466" d="M227 -451q-67 0 -127.5 21t-99.5 53l55 110q79 -64 165 -64q46 0 76.5 21t30.5 58q0 29 -15.5 45.5t-44.5 16.5q-39 0 -68 -33l-102 59l69 190h139l-58 -146q30 23 75 23q62 0 104 -44.5t42 -115.5q0 -87 -69 -140.5t-172 -53.5z" />
<glyph unicode="&#xbb;" horiz-adv-x="1052" d="M594 563l-289 -417h-236l289 417l-289 409h236zM983 563l-289 -417h-235l289 417l-289 409h235z" />
<glyph unicode="&#xbf;" horiz-adv-x="795" d="M563 647q66 -76 66 -203q0 -47 -11.5 -89t-31.5 -73t-45 -61t-51 -53t-51 -48.5t-44.5 -49t-31.5 -53t-12 -61.5q0 -57 42 -97t114 -40q124 0 208 110l153 -196q-52 -59 -118 -100.5t-141 -62.5t-156 -21q-189 0 -301 97t-112 250q0 62 18 117t47 95.5t64 77.5t70 70 t64 64.5t47 69.5t18 78q0 18 -5.5 37.5t-15 36t-20.5 28.5zM453 1144q48 0 89.5 -25t66.5 -67t25 -89q0 -72 -54 -125.5t-127 -53.5q-72 0 -124.5 53.5t-52.5 125.5q0 73 52.5 127t124.5 54z" />
<glyph unicode="&#xc0;" horiz-adv-x="1288" d="M815 1685h-186l-311 333h247zM1292 0h-336l-72 273h-479l-74 -273h-336l464 1544h372zM824 546l-181 671l-177 -671h358z" />
<glyph unicode="&#xc1;" horiz-adv-x="1288" d="M976 2018l-312 -333h-185l250 333h247zM1292 0h-336l-72 273h-479l-74 -273h-336l464 1544h372zM824 546l-181 671l-177 -671h358z" />
<glyph unicode="&#xc2;" horiz-adv-x="1288" d="M954 1685h-163l-148 210l-141 -210h-162l179 333h249zM1292 0h-336l-72 273h-479l-74 -273h-336l464 1544h372zM824 546l-181 671l-177 -671h358z" />
<glyph unicode="&#xc4;" horiz-adv-x="1288" d="M1014 1812.5q0 -62.5 -44 -107t-107 -44.5q-61 0 -105.5 44.5t-44.5 107t44.5 106.5t105.5 44q63 0 107 -44t44 -106.5zM576 1812q0 -63 -42.5 -107t-105.5 -44q-62 0 -106 44.5t-44 107t44 106.5t106 44q63 0 105.5 -44t42.5 -107zM1292 0h-336l-72 273h-479l-74 -273 h-336l464 1544h372zM824 546l-181 671l-177 -671h358z" />
<glyph unicode="&#xc6;" horiz-adv-x="1827" d="M1745 0h-886v273h-408l-120 -273h-336l734 1544h1016v-274h-577v-349h561v-271h-561v-377h577v-273zM859 546v671l-296 -671h296z" />
<glyph unicode="&#xc7;" horiz-adv-x="1294" d="M720 -442q-68 0 -128 21t-99 53l55 111q80 -65 165 -65q45 0 75.5 21t30.5 58q0 29 -15.5 45.5t-44.5 16.5q-40 0 -67 -31l-102 57l48 135q-172 24 -299.5 130t-194.5 276t-67 385q0 175 46 322.5t130 253t207.5 164.5t272.5 59q353 0 517 -371l-257 -113 q-36 96 -103 152t-157 56q-104 0 -181.5 -67.5t-118 -185.5t-40.5 -270t40.5 -270t118 -186t181.5 -68q92 0 160 62t103 163l256 -112q-155 -367 -479 -386l-33 -85q29 23 75 23q62 0 103.5 -44.5t41.5 -114.5q0 -88 -68.5 -141.5t-171.5 -53.5z" />
<glyph unicode="&#xc8;" d="M753 1685h-186l-313 333h248zM1023 0h-886v1544h886v-274h-577v-349h561v-271h-561v-377h577v-273z" />
<glyph unicode="&#xc9;" d="M914 2018l-313 -333h-184l250 333h247zM1023 0h-886v1544h886v-274h-577v-349h561v-271h-561v-377h577v-273z" />
<glyph unicode="&#xca;" d="M886 1685h-162l-148 210l-141 -210h-162l178 333h251zM1023 0h-886v1544h886v-274h-577v-349h561v-271h-561v-377h577v-273z" />
<glyph unicode="&#xcb;" d="M951 1812.5q0 -62.5 -43.5 -107t-106.5 -44.5q-30 0 -58 12t-48.5 32.5t-32.5 48.5t-12 59q0 62 45 106t106 44q63 0 106.5 -44t43.5 -106.5zM514 1813q0 -42 -19.5 -76.5t-53.5 -55t-75 -20.5t-76 20.5t-55 55t-20 76t20 76t55 54.5t76 20q63 0 105.5 -44t42.5 -106z M1023 0h-886v1544h886v-274h-577v-349h561v-271h-561v-377h577v-273z" />
<glyph unicode="&#xcc;" horiz-adv-x="583" d="M459 1685h-186l-313 333h248zM446 0h-309v1544h309v-1544z" />
<glyph unicode="&#xcd;" horiz-adv-x="583" d="M627 2018l-312 -333h-185l250 333h247zM446 0h-309v1544h309v-1544z" />
<glyph unicode="&#xce;" horiz-adv-x="583" d="M597 1685h-162l-148 210l-141 -210h-162l178 333h250zM446 0h-309v1544h309v-1544z" />
<glyph unicode="&#xcf;" horiz-adv-x="583" d="M662 1810q0 -41 -20 -76t-54.5 -55t-75.5 -20q-62 0 -107 44.5t-45 106.5t45 106.5t107 44.5q63 0 106.5 -44t43.5 -107zM225 1810q0 -63 -43 -107t-105 -44q-63 0 -107.5 44.5t-44.5 107t44.5 106.5t107.5 44q62 0 105 -44t43 -107zM446 0h-309v1544h309v-1544z" />
<glyph unicode="&#xd1;" horiz-adv-x="1409" d="M819 1680q-39 0 -70 17t-50.5 41t-36.5 48t-36 41t-41 17q-34 0 -54.5 -37.5t-20.5 -112.5h-146q0 143 58 227t166 84q38 0 69 -17t50 -41.5t36 -48.5t36 -41t40 -17q35 0 56 37.5t21 112.5h146q0 -143 -58.5 -226.5t-164.5 -83.5zM1272 0h-296l-530 942v-942h-309v1544 h314l512 -908v908h309v-1544z" />
<glyph unicode="&#xd2;" horiz-adv-x="1446" d="M896 1685h-185l-313 333h247zM724 -28q-100 0 -189 27t-159.5 77.5t-127 122t-94 160t-57.5 193t-20 219.5q0 172 44.5 319t126 253t204.5 166.5t272 60.5t271.5 -60.5t204.5 -166.5t127 -253t45 -319.5t-45 -319t-127 -253t-204.5 -166.5t-271.5 -60zM724 247 q103 0 178.5 69.5t113 187t37.5 267.5t-37.5 267.5t-113 186.5t-178.5 69q-104 0 -180 -69t-113.5 -186t-37.5 -268q0 -150 37.5 -267t113.5 -187t180 -70z" />
<glyph unicode="&#xd3;" horiz-adv-x="1446" d="M1055 2018l-313 -333h-184l250 333h247zM724 -28q-100 0 -189 27t-159.5 77.5t-127 122t-94 160t-57.5 193t-20 219.5q0 172 44.5 319t126 253t204.5 166.5t272 60.5t271.5 -60.5t204.5 -166.5t127 -253t45 -319.5t-45 -319t-127 -253t-204.5 -166.5t-271.5 -60zM724 247 q103 0 178.5 69.5t113 187t37.5 267.5t-37.5 267.5t-113 186.5t-178.5 69q-104 0 -180 -69t-113.5 -186t-37.5 -268q0 -150 37.5 -267t113.5 -187t180 -70z" />
<glyph unicode="&#xd4;" horiz-adv-x="1446" d="M1034 1685h-162l-148 210l-141 -210h-162l178 333h251zM724 -28q-100 0 -189 27t-159.5 77.5t-127 122t-94 160t-57.5 193t-20 219.5q0 172 44.5 319t126 253t204.5 166.5t272 60.5t271.5 -60.5t204.5 -166.5t127 -253t45 -319.5t-45 -319t-127 -253t-204.5 -166.5 t-271.5 -60zM724 247q103 0 178.5 69.5t113 187t37.5 267.5t-37.5 267.5t-113 186.5t-178.5 69q-104 0 -180 -69t-113.5 -186t-37.5 -268q0 -150 37.5 -267t113.5 -187t180 -70z" />
<glyph unicode="&#xd6;" horiz-adv-x="1446" d="M1093 1812.5q0 -62.5 -44 -107t-107 -44.5q-61 0 -106 44.5t-45 107t45 106.5t106 44q63 0 107 -44t44 -106.5zM655 1812q0 -63 -42.5 -107t-105.5 -44q-30 0 -58.5 12t-48.5 32.5t-32 48.5t-12 59q0 41 20.5 75.5t55 54.5t75.5 20q63 0 105.5 -44t42.5 -107zM724 -28 q-100 0 -189 27t-159.5 77.5t-127 122t-94 160t-57.5 193t-20 219.5q0 172 44.5 319t126 253t204.5 166.5t272 60.5t271.5 -60.5t204.5 -166.5t127 -253t45 -319.5t-45 -319t-127 -253t-204.5 -166.5t-271.5 -60zM724 247q103 0 178.5 69.5t113 187t37.5 267.5t-37.5 267.5 t-113 186.5t-178.5 69q-104 0 -180 -69t-113.5 -186t-37.5 -268q0 -150 37.5 -267t113.5 -187t180 -70z" />
<glyph unicode="&#xd9;" horiz-adv-x="1413" d="M879 1685h-185l-312 333h247zM706 -28q-263 0 -416 148.5t-153 413.5v1010h312v-1012q0 -138 67 -212.5t190.5 -74.5t191 74.5t67.5 212.5v1012h312v-1010q0 -266 -153 -414t-418 -148z" />
<glyph unicode="&#xda;" horiz-adv-x="1413" d="M1040 2018l-313 -333h-186l250 333h249zM706 -28q-263 0 -416 148.5t-153 413.5v1010h312v-1012q0 -138 67 -212.5t190.5 -74.5t191 74.5t67.5 212.5v1012h312v-1010q0 -266 -153 -414t-418 -148z" />
<glyph unicode="&#xdb;" horiz-adv-x="1413" d="M1023 1685h-162l-148 210l-141 -210h-163l179 333h249zM706 -28q-263 0 -416 148.5t-153 413.5v1010h312v-1012q0 -138 67 -212.5t190.5 -74.5t191 74.5t67.5 212.5v1012h312v-1010q0 -266 -153 -414t-418 -148z" />
<glyph unicode="&#xdc;" horiz-adv-x="1413" d="M1076 1812.5q0 -62.5 -44 -107t-107 -44.5q-61 0 -105.5 44.5t-44.5 107t44.5 106.5t105.5 44q63 0 107 -44t44 -106.5zM638 1812q0 -63 -42.5 -107t-105.5 -44q-62 0 -106 44.5t-44 107t44 106.5t106 44q63 0 105.5 -44t42.5 -107zM706 -28q-263 0 -416 148.5 t-153 413.5v1010h312v-1012q0 -138 67 -212.5t190.5 -74.5t191 74.5t67.5 212.5v1012h312v-1010q0 -266 -153 -414t-418 -148z" />
<glyph unicode="&#xdf;" horiz-adv-x="1345" d="M1312 322q0 -70 -29 -133.5t-81 -112t-129.5 -76.5t-169.5 -28q-135 0 -228 42t-173 123l109 192q43 -55 114 -95t150 -40q72 0 114.5 34t42.5 87q0 29 -17 52t-46 39.5t-66.5 31.5t-79 30.5t-83 34t-79 46t-66.5 61t-46 83.5t-17 110q0 42 11 78t28.5 63t40.5 51.5 t46.5 43.5t46 38.5t40.5 37t28.5 38.5t10.5 44q0 56 -49.5 90t-120.5 34q-59 0 -104.5 -22.5t-73 -69.5t-27.5 -114v-1115h-277v1115q0 93 33.5 175t94.5 143.5t153 97t203 35.5q119 0 222 -41.5t166 -119t63 -173.5q0 -45 -11.5 -84.5t-30 -68t-42.5 -54.5t-49 -44.5 t-49 -39t-42.5 -37.5t-30 -39t-11.5 -46q0 -26 17.5 -46.5t47 -35t68 -27.5t81 -28.5t84.5 -34t80.5 -47.5t68 -65.5t47 -91t17.5 -121.5z" />
<glyph unicode="&#xe0;" horiz-adv-x="1113" d="M988 0h-277v115q-47 -68 -128.5 -105.5t-170.5 -37.5q-66 0 -128 24.5t-110.5 70.5t-77.5 117.5t-29 157.5q0 89 28.5 160t77.5 114.5t110 66.5t129 23q92 0 173 -35.5t126 -100.5v143q0 61 -25.5 105.5t-73 68t-113.5 23.5q-148 0 -274 -124l-107 195q83 82 199.5 123.5 t235.5 41.5q74 0 138 -13.5t119.5 -43t94 -74.5t61 -111t22.5 -149v-755zM519 159q62 0 112.5 25.5t79.5 76.5v154q-29 51 -80 77.5t-112 26.5q-78 0 -126 -50.5t-48 -130.5t48 -129.5t126 -49.5zM724 1287h-185l-312 333h248z" />
<glyph unicode="&#xe1;" horiz-adv-x="1113" d="M988 0h-277v115q-47 -68 -128.5 -105.5t-170.5 -37.5q-66 0 -128 24.5t-110.5 70.5t-77.5 117.5t-29 157.5q0 89 28.5 160t77.5 114.5t110 66.5t129 23q92 0 173 -35.5t126 -100.5v143q0 61 -25.5 105.5t-73 68t-113.5 23.5q-148 0 -274 -124l-107 195q83 82 199.5 123.5 t235.5 41.5q74 0 138 -13.5t119.5 -43t94 -74.5t61 -111t22.5 -149v-755zM519 159q62 0 112.5 25.5t79.5 76.5v154q-29 51 -80 77.5t-112 26.5q-78 0 -126 -50.5t-48 -130.5t48 -129.5t126 -49.5zM890 1620l-311 -333h-186l250 333h247z" />
<glyph unicode="&#xe2;" horiz-adv-x="1113" d="M988 0h-277v115q-47 -68 -128.5 -105.5t-170.5 -37.5q-66 0 -128 24.5t-110.5 70.5t-77.5 117.5t-29 157.5q0 89 28.5 160t77.5 114.5t110 66.5t129 23q92 0 173 -35.5t126 -100.5v143q0 61 -25.5 105.5t-73 68t-113.5 23.5q-148 0 -274 -124l-107 195q83 82 199.5 123.5 t235.5 41.5q74 0 138 -13.5t119.5 -43t94 -74.5t61 -111t22.5 -149v-755zM519 159q62 0 112.5 25.5t79.5 76.5v154q-29 51 -80 77.5t-112 26.5q-78 0 -126 -50.5t-48 -130.5t48 -129.5t126 -49.5zM870 1287h-161l-149 210l-141 -210h-162l178 333h250z" />
<glyph unicode="&#xe4;" horiz-adv-x="1113" d="M988 0h-277v115q-47 -68 -128.5 -105.5t-170.5 -37.5q-66 0 -128 24.5t-110.5 70.5t-77.5 117.5t-29 157.5q0 89 28.5 160t77.5 114.5t110 66.5t129 23q92 0 173 -35.5t126 -100.5v143q0 61 -25.5 105.5t-73 68t-113.5 23.5q-148 0 -274 -124l-107 195q83 82 199.5 123.5 t235.5 41.5q74 0 138 -13.5t119.5 -43t94 -74.5t61 -111t22.5 -149v-755zM519 159q62 0 112.5 25.5t79.5 76.5v154q-29 51 -80 77.5t-112 26.5q-78 0 -126 -50.5t-48 -130.5t48 -129.5t126 -49.5zM923 1411.5q0 -62.5 -43.5 -106.5t-106.5 -44q-61 0 -105.5 44t-44.5 106.5 t44.5 106.5t105.5 44q63 0 106.5 -44t43.5 -106.5zM486 1411q0 -63 -43 -106.5t-105 -43.5q-63 0 -106.5 44t-43.5 106.5t43.5 106.5t106.5 44q62 0 105 -44t43 -107z" />
<glyph unicode="&#xe6;" horiz-adv-x="1749" d="M1689 468h-706q9 -118 80 -192.5t194 -74.5q63 0 130 30t115 81l127 -173q-73 -80 -180 -123.5t-223 -43.5q-129 0 -234 54.5t-170 145.5q-31 -41 -68.5 -75t-86.5 -63t-111.5 -45.5t-131.5 -16.5q-71 0 -135 24t-114 69t-79 115.5t-29 157.5t27.5 157.5t75 116t110 70 t132.5 24.5q90 0 171 -34.5t128 -99.5v143q0 89 -56.5 142t-155.5 53q-151 0 -274 -124l-107 195q83 82 199.5 123.5t235.5 41.5q243 0 328 -161q57 75 137 118t199 43q147 0 255 -78t162.5 -213t54.5 -309v-78zM981 662h443q-2 37 -9.5 71.5t-24 68.5t-41 59.5t-63 41.5 t-85.5 16q-44 0 -81 -16t-61.5 -42t-41.5 -60t-25.5 -68.5t-10.5 -70.5zM731 292q-8 20 -14 57t-6 63q-29 54 -79.5 80.5t-112.5 26.5q-77 0 -125.5 -49t-48.5 -132t48.5 -131t125.5 -48q66 0 123 34t89 99z" />
<glyph unicode="&#xe7;" horiz-adv-x="980" d="M583 -446q-67 0 -127.5 20.5t-99.5 52.5l56 112q80 -66 164 -66q45 0 76 21.5t31 58.5q0 28 -15.5 45t-44.5 17q-38 0 -67 -33l-103 59l49 139q-131 18 -229.5 96.5t-152 204t-53.5 279.5q0 169 63.5 302.5t181.5 208.5t269 75q84 0 156 -22t119.5 -54t80.5 -74 l-134 -193q-76 98 -189 98q-118 0 -189 -95.5t-71 -245.5q0 -149 71 -245.5t189 -96.5q111 0 189 100l134 -195q-45 -57 -120.5 -96.5t-178.5 -49.5l-33 -92q29 22 73 22q62 0 104 -44.5t42 -114.5q0 -88 -69 -141t-172 -53z" />
<glyph unicode="&#xe8;" d="M592 -28q-157 0 -276.5 73.5t-184 207t-64.5 307.5q0 122 35.5 229t99.5 186t159.5 125t210.5 46q76 0 143 -20.5t119.5 -58t94 -90.5t69 -119.5t41.5 -144.5t14 -165v-80h-706q11 -119 81 -194t192 -75q65 0 132.5 29.5t113.5 81.5l130 -171q-74 -80 -181.5 -123.5 t-222.5 -43.5zM786 662q0 37 -7.5 71.5t-24 68.5t-41 59.5t-62 41.5t-84.5 16q-32 0 -61 -8.5t-50.5 -22.5t-39.5 -34t-30 -42.5t-20.5 -48t-13 -50.5t-5.5 -51h439zM740 1287h-184l-313 333h247z" />
<glyph unicode="&#xe9;" d="M592 -28q-157 0 -276.5 73.5t-184 207t-64.5 307.5q0 122 35.5 229t99.5 186t159.5 125t210.5 46q76 0 143 -20.5t119.5 -58t94 -90.5t69 -119.5t41.5 -144.5t14 -165v-80h-706q11 -119 81 -194t192 -75q65 0 132.5 29.5t113.5 81.5l130 -171q-74 -80 -181.5 -123.5 t-222.5 -43.5zM786 662q0 37 -7.5 71.5t-24 68.5t-41 59.5t-62 41.5t-84.5 16q-32 0 -61 -8.5t-50.5 -22.5t-39.5 -34t-30 -42.5t-20.5 -48t-13 -50.5t-5.5 -51h439zM905 1620l-313 -333h-185l251 333h247z" />
<glyph unicode="&#xea;" d="M592 -28q-157 0 -276.5 73.5t-184 207t-64.5 307.5q0 122 35.5 229t99.5 186t159.5 125t210.5 46q76 0 143 -20.5t119.5 -58t94 -90.5t69 -119.5t41.5 -144.5t14 -165v-80h-706q11 -119 81 -194t192 -75q65 0 132.5 29.5t113.5 81.5l130 -171q-74 -80 -181.5 -123.5 t-222.5 -43.5zM786 662q0 37 -7.5 71.5t-24 68.5t-41 59.5t-62 41.5t-84.5 16q-32 0 -61 -8.5t-50.5 -22.5t-39.5 -34t-30 -42.5t-20.5 -48t-13 -50.5t-5.5 -51h439zM877 1287h-162l-148 210l-141 -210h-163l179 333h250z" />
<glyph unicode="&#xeb;" d="M592 -28q-157 0 -276.5 73.5t-184 207t-64.5 307.5q0 122 35.5 229t99.5 186t159.5 125t210.5 46q76 0 143 -20.5t119.5 -58t94 -90.5t69 -119.5t41.5 -144.5t14 -165v-80h-706q11 -119 81 -194t192 -75q65 0 132.5 29.5t113.5 81.5l130 -171q-74 -80 -181.5 -123.5 t-222.5 -43.5zM786 662q0 37 -7.5 71.5t-24 68.5t-41 59.5t-62 41.5t-84.5 16q-32 0 -61 -8.5t-50.5 -22.5t-39.5 -34t-30 -42.5t-20.5 -48t-13 -50.5t-5.5 -51h439zM937 1411q0 -62 -44 -106t-107 -44q-61 0 -105.5 44t-44.5 106.5t44.5 106.5t105.5 44q31 0 59 -12t48 -32 t32 -48t12 -59zM499 1411q0 -41 -19 -75.5t-53 -54.5t-76 -20q-62 0 -106 44t-44 106.5t44 106.5t106 44q63 0 105.5 -44t42.5 -107z" />
<glyph unicode="&#xec;" horiz-adv-x="526" d="M433 1287h-186l-311 333h247zM402 0h-277v1118h277v-1118z" />
<glyph unicode="&#xed;" horiz-adv-x="526" d="M594 1620l-312 -333h-185l250 333h247zM402 0h-277v1118h277v-1118z" />
<glyph unicode="&#xee;" horiz-adv-x="526" d="M572 1287h-163l-148 210l-141 -210h-162l179 333h249zM402 0h-277v1118h277v-1118z" />
<glyph unicode="&#xef;" horiz-adv-x="526" d="M632 1411.5q0 -62.5 -44 -106.5t-107 -44q-61 0 -105.5 44t-44.5 106.5t44.5 106.5t105.5 44q63 0 107 -44t44 -106.5zM194 1411q0 -63 -42.5 -106.5t-105.5 -43.5q-62 0 -106 44t-44 106.5t44 106.5t106 44q63 0 105.5 -44t42.5 -107zM402 0h-277v1118h277v-1118z" />
<glyph unicode="&#xf1;" horiz-adv-x="1159" d="M1042 0h-278v733q0 168 -148 168q-64 0 -118.5 -41t-88.5 -98v-762h-277v1118h277v-146q49 71 139 122.5t192 51.5q152 0 227 -81t75 -228v-837zM698 1283q-39 0 -70 16.5t-50.5 40.5t-36 48.5t-35.5 41t-40 16.5q-35 0 -56 -37.5t-21 -112.5h-146q0 143 58.5 226.5 t166.5 83.5q38 0 69 -17t50 -41t35.5 -48t35.5 -41t40 -17q35 0 56 37.5t21 112.5h146q0 -143 -58.5 -226t-164.5 -83z" />
<glyph unicode="&#xf2;" horiz-adv-x="1151" d="M576 -28q-97 0 -179.5 31t-142.5 85.5t-103 128.5t-63.5 161t-20.5 182.5t20.5 182t63.5 160t103 128t142.5 85t179.5 30.5q98 0 181 -30.5t143 -85t102.5 -128t63 -160t20.5 -182t-20.5 -182.5t-63 -161t-102.5 -128.5t-143 -85.5t-181 -31zM576 218q74 0 124.5 48 t73.5 123t23 171q0 71 -13.5 131t-39.5 107.5t-69 75t-99 27.5q-54 0 -97 -27.5t-69.5 -74.5t-40 -107.5t-13.5 -131.5q0 -95 23 -170.5t74 -123.5t123 -48zM745 1287h-185l-313 333h248z" />
<glyph unicode="&#xf3;" horiz-adv-x="1151" d="M576 -28q-97 0 -179.5 31t-142.5 85.5t-103 128.5t-63.5 161t-20.5 182.5t20.5 182t63.5 160t103 128t142.5 85t179.5 30.5q98 0 181 -30.5t143 -85t102.5 -128t63 -160t20.5 -182t-20.5 -182.5t-63 -161t-102.5 -128.5t-143 -85.5t-181 -31zM576 218q74 0 124.5 48 t73.5 123t23 171q0 71 -13.5 131t-39.5 107.5t-69 75t-99 27.5q-54 0 -97 -27.5t-69.5 -74.5t-40 -107.5t-13.5 -131.5q0 -95 23 -170.5t74 -123.5t123 -48zM907 1620l-313 -333h-185l251 333h247z" />
<glyph unicode="&#xf4;" horiz-adv-x="1151" d="M576 -28q-97 0 -179.5 31t-142.5 85.5t-103 128.5t-63.5 161t-20.5 182.5t20.5 182t63.5 160t103 128t142.5 85t179.5 30.5q98 0 181 -30.5t143 -85t102.5 -128t63 -160t20.5 -182t-20.5 -182.5t-63 -161t-102.5 -128.5t-143 -85.5t-181 -31zM576 218q74 0 124.5 48 t73.5 123t23 171q0 71 -13.5 131t-39.5 107.5t-69 75t-99 27.5q-54 0 -97 -27.5t-69.5 -74.5t-40 -107.5t-13.5 -131.5q0 -95 23 -170.5t74 -123.5t123 -48zM886 1287h-162l-148 210l-141 -210h-162l178 333h251z" />
<glyph unicode="&#xf6;" horiz-adv-x="1151" d="M576 -28q-97 0 -179.5 31t-142.5 85.5t-103 128.5t-63.5 161t-20.5 182.5t20.5 182t63.5 160t103 128t142.5 85t179.5 30.5q98 0 181 -30.5t143 -85t102.5 -128t63 -160t20.5 -182t-20.5 -182.5t-63 -161t-102.5 -128.5t-143 -85.5t-181 -31zM576 218q74 0 124.5 48 t73.5 123t23 171q0 71 -13.5 131t-39.5 107.5t-69 75t-99 27.5q-54 0 -97 -27.5t-69.5 -74.5t-40 -107.5t-13.5 -131.5q0 -95 23 -170.5t74 -123.5t123 -48zM945 1411q0 -41 -20.5 -75.5t-55.5 -54.5t-76 -20q-61 0 -105.5 44t-44.5 106.5t44.5 106.5t105.5 44 q63 0 107.5 -44t44.5 -107zM507 1411.5q0 -62.5 -43 -106.5t-106 -44t-106.5 44t-43.5 106.5t43.5 106.5t106.5 44t106 -44t43 -106.5z" />
<glyph unicode="&#xf9;" horiz-adv-x="1159" d="M1034 0h-279v141q-49 -70 -137.5 -119.5t-191.5 -49.5q-152 0 -226.5 78.5t-74.5 225.5v842h277v-738q0 -85 38 -123.5t110 -38.5q65 0 119.5 39t85.5 94v767h279v-1118zM750 1287h-185l-313 333h247z" />
<glyph unicode="&#xfa;" horiz-adv-x="1159" d="M1034 0h-279v141q-49 -70 -137.5 -119.5t-191.5 -49.5q-152 0 -226.5 78.5t-74.5 225.5v842h277v-738q0 -85 38 -123.5t110 -38.5q65 0 119.5 39t85.5 94v767h279v-1118zM912 1620l-313 -333h-184l249 333h248z" />
<glyph unicode="&#xfb;" horiz-adv-x="1159" d="M1034 0h-279v141q-49 -70 -137.5 -119.5t-191.5 -49.5q-152 0 -226.5 78.5t-74.5 225.5v842h277v-738q0 -85 38 -123.5t110 -38.5q65 0 119.5 39t85.5 94v767h279v-1118zM888 1287h-161l-148 210l-142 -210h-161l177 333h251z" />
<glyph unicode="&#xfc;" horiz-adv-x="1159" d="M1034 0h-279v141q-49 -70 -137.5 -119.5t-191.5 -49.5q-152 0 -226.5 78.5t-74.5 225.5v842h277v-738q0 -85 38 -123.5t110 -38.5q65 0 119.5 39t85.5 94v767h279v-1118zM954 1411.5q0 -62.5 -44 -106.5t-107 -44q-61 0 -105.5 44t-44.5 106.5t44.5 106.5t105.5 44 q63 0 107 -44t44 -106.5zM516 1411q0 -41 -19 -75.5t-53.5 -54.5t-75.5 -20q-62 0 -106 44t-44 106.5t44 106.5t106 44q63 0 105.5 -44t42.5 -107z" />
<glyph unicode="&#xff;" horiz-adv-x="1040" d="M102 -435l42 245q28 -18 68 -18q98 0 126 80l37 108l-380 1138h297l227 -782l231 782h296l-441 -1308q-21 -61 -48.5 -106t-59.5 -74.5t-73.5 -48t-85.5 -26t-100 -8.5q-19 0 -44.5 2t-51.5 6.5t-40 9.5zM888 1411.5q0 -62.5 -43.5 -106.5t-106.5 -44q-62 0 -106 44 t-44 106.5t44 106.5t106 44q63 0 106.5 -44t43.5 -106.5zM451 1411q0 -63 -43 -106.5t-105 -43.5q-63 0 -106.5 44t-43.5 106.5t43.5 106.5t106.5 44q62 0 105 -44t43 -107z" />
<glyph unicode="&#x152;" horiz-adv-x="1996" d="M1912 0h-885v153q-58 -90 -154 -135.5t-197 -45.5q-139 0 -252.5 60t-189 166.5t-116.5 253t-41 319t41 319t116.5 252t189 165t252.5 59.5q102 0 198 -44t153 -131v153h885v-274h-574v-349h557v-271h-557v-377h574v-273zM1027 488v567q-41 115 -119.5 176t-178.5 61 q-108 0 -185 -69t-114 -185t-37 -267.5t37 -268t114 -186t185 -69.5q100 0 178.5 62.5t119.5 178.5z" />
<glyph unicode="&#x153;" horiz-adv-x="1844" d="M1782 468h-706q10 -119 80.5 -194t192.5 -75q64 0 132 30t113 81l130 -171q-73 -80 -180.5 -123.5t-222.5 -43.5q-72 0 -133.5 18t-107 52t-79 71.5t-62.5 85.5q-129 -227 -363 -227q-97 0 -179.5 31t-142.5 85.5t-103 128.5t-63.5 161t-20.5 182.5t20.5 182t63.5 160 t103 128t142.5 85t179.5 30.5q232 0 366 -225q26 47 59 85.5t76.5 70.5t100.5 50.5t123 18.5q113 0 205 -45t152 -125t92 -190t32 -240v-78zM1076 662h439q0 30 -5.5 59t-16 58.5t-28 54t-41 44t-56.5 30.5t-72 11q-45 0 -82.5 -16t-62 -42t-41.5 -60t-25 -68.5t-9 -70.5z M797 560q0 98 -24 173.5t-74.5 121.5t-122.5 46q-54 0 -96.5 -26.5t-69 -73t-40.5 -107.5t-14 -134q0 -98 23.5 -174t74.5 -122t122.5 -46t122 46t74.5 122t24 174z" />
<glyph unicode="&#x178;" horiz-adv-x="1250" d="M1000 1812.5q0 -62.5 -44 -107t-106 -44.5q-40 0 -75 20.5t-56 55.5t-21 76q0 62 45 106t107 44t106 -44t44 -106.5zM563 1812q0 -63 -43 -107t-105 -44q-25 0 -48 7.5t-41.5 21.5t-32.5 33t-22 42t-8 48q0 41 20.5 75.5t55.5 54.5t76 20q62 0 105 -44t43 -107zM782 0 h-310v636l-481 908h342l294 -621l292 621h342l-479 -908v-636z" />
<glyph unicode="&#x2c6;" horiz-adv-x="612" d="M614 1287h-163l-148 210l-141 -210h-162l179 333h249z" />
<glyph unicode="&#x2da;" horiz-adv-x="446" d="M225 1270q-93 0 -159 65.5t-66 159.5q0 92 66 158.5t159 66.5t157 -66t64 -159q0 -62 -29 -113.5t-79.5 -81.5t-112.5 -30zM225 1396q27 0 50 13t36 36t13 50q0 42 -29 70.5t-70.5 28.5t-70.5 -28.5t-29 -70.5t29 -70.5t71 -28.5z" />
<glyph unicode="&#x2dc;" horiz-adv-x="677" d="M455 1283q-39 0 -70 16.5t-50.5 40.5t-36 48.5t-35.5 41t-40 16.5q-35 0 -56 -37.5t-21 -112.5h-146q0 143 58.5 226.5t166.5 83.5q38 0 69 -17t50 -41t35.5 -48t35.5 -41t40 -17q23 0 40 15.5t27 50t10 84.5h146q0 -143 -58.5 -226t-164.5 -83z" />
<glyph unicode="&#x2000;" horiz-adv-x="1009" />
<glyph unicode="&#x2001;" horiz-adv-x="2018" />
<glyph unicode="&#x2002;" horiz-adv-x="1009" />
<glyph unicode="&#x2003;" horiz-adv-x="2018" />
<glyph unicode="&#x2004;" horiz-adv-x="672" />
<glyph unicode="&#x2005;" horiz-adv-x="504" />
<glyph unicode="&#x2006;" horiz-adv-x="336" />
<glyph unicode="&#x2007;" horiz-adv-x="336" />
<glyph unicode="&#x2008;" horiz-adv-x="252" />
<glyph unicode="&#x2009;" horiz-adv-x="403" />
<glyph unicode="&#x200a;" horiz-adv-x="112" />
<glyph unicode="&#x2010;" horiz-adv-x="627" d="M558 442h-489v236h489v-236z" />
<glyph unicode="&#x2011;" horiz-adv-x="627" d="M558 442h-489v236h489v-236z" />
<glyph unicode="&#x2012;" horiz-adv-x="627" d="M558 442h-489v236h489v-236z" />
<glyph unicode="&#x2013;" horiz-adv-x="1219" d="M1150 442h-1081v236h1081v-236z" />
<glyph unicode="&#x2014;" horiz-adv-x="1705" d="M1636 442h-1567v236h1567v-236z" />
<glyph unicode="&#x2018;" horiz-adv-x="585" d="M97 1150q0 124 62.5 233.5t169.5 186.5l120 -101q-38 -21 -74.5 -56.5t-64 -79t-34.5 -81.5q13 5 42 5q42 0 76.5 -20t54 -56.5t19.5 -83.5q0 -35 -14 -67.5t-37.5 -56t-55.5 -38t-67 -14.5q-82 0 -139.5 62.5t-57.5 166.5z" />
<glyph unicode="&#x2019;" horiz-adv-x="585" d="M484 1338q0 -124 -62.5 -233t-169.5 -184l-120 97q58 33 110 97t63 123q-20 -6 -42 -6q-65 0 -107.5 44.5t-42.5 114.5q0 73 51.5 124t122.5 51q82 0 139.5 -61.5t57.5 -166.5z" />
<glyph unicode="&#x201a;" horiz-adv-x="585" d="M484 104q0 -124 -62.5 -232.5t-169.5 -183.5l-120 97q38 21 74.5 57t63.5 79.5t35 83.5q-10 -7 -42 -7q-65 0 -107.5 44.5t-42.5 114.5q0 73 51.5 124.5t122.5 51.5q82 0 139.5 -62t57.5 -167z" />
<glyph unicode="&#x201c;" horiz-adv-x="1042" d="M102 1150q0 124 62 233.5t169 186.5l120 -101q-57 -32 -109.5 -95.5t-65.5 -121.5q14 5 44 5q42 0 76 -20t54 -56.5t20 -83.5q0 -71 -51.5 -123.5t-122.5 -52.5q-81 0 -138.5 62.5t-57.5 166.5zM558 1150q0 83 29 161.5t80 143t122 115.5l123 -101q-58 -32 -110.5 -95.5 t-65.5 -121.5q13 5 41 5q66 0 109.5 -44.5t43.5 -115.5q0 -35 -14 -67.5t-37 -56t-55.5 -38t-68.5 -14.5q-82 0 -139.5 62.5t-57.5 166.5z" />
<glyph unicode="&#x201d;" horiz-adv-x="1042" d="M942 1338q0 -124 -62.5 -233t-168.5 -184l-123 97q37 21 74 57t65 80t37 83q-20 -6 -44 -6q-64 0 -107 44.5t-43 114.5q0 48 23 88t63.5 63.5t88.5 23.5q82 0 139.5 -61.5t57.5 -166.5zM484 1338q0 -124 -62.5 -233t-169.5 -184l-120 97q58 33 110 97t63 123 q-20 -6 -42 -6q-65 0 -107.5 44.5t-42.5 114.5q0 73 51.5 124t122.5 51q82 0 139.5 -61.5t57.5 -166.5z" />
<glyph unicode="&#x201e;" horiz-adv-x="1042" d="M484 104q0 -124 -62.5 -232.5t-169.5 -183.5l-120 97q38 21 74.5 57t63.5 79.5t35 83.5q-10 -7 -42 -7q-65 0 -107.5 44.5t-42.5 114.5q0 73 51.5 124.5t122.5 51.5q82 0 139.5 -62t57.5 -167zM942 104q0 -123 -62.5 -231.5t-168.5 -184.5l-123 97q58 33 110.5 96.5 t65.5 123.5q-10 -7 -44 -7q-64 0 -107 44.5t-43 114.5q0 73 51 124.5t124 51.5q82 0 139.5 -62t57.5 -167z" />
<glyph unicode="&#x2022;" horiz-adv-x="828" d="M687 560q0 -111 -79 -189.5t-191.5 -78.5t-191.5 78.5t-79 189.5q0 113 79 192t192 79q74 0 136 -36t98 -98.5t36 -136.5z" />
<glyph unicode="&#x2026;" horiz-adv-x="1751" d="M470 153q0 -72 -53 -125.5t-125 -53.5q-48 0 -89.5 24.5t-65.5 66t-24 88.5q0 73 53 126.5t125.5 53.5t125.5 -53.5t53 -126.5zM1055 153q0 -72 -54 -125.5t-126 -53.5q-73 0 -126 53.5t-53 125.5q0 73 53 126.5t126 53.5t126.5 -54t53.5 -126zM1638 153 q0 -72 -53 -125.5t-127 -53.5q-73 0 -125.5 53.5t-52.5 125.5q0 73 52.5 126.5t125.5 53.5q74 0 127 -53.5t53 -126.5z" />
<glyph unicode="&#x202f;" horiz-adv-x="403" />
<glyph unicode="&#x2039;" horiz-adv-x="663" d="M594 146h-236l-289 417l289 409h236l-289 -409z" />
<glyph unicode="&#x203a;" horiz-adv-x="663" d="M594 563l-289 -417h-236l289 417l-289 409h236z" />
<glyph unicode="&#x205f;" horiz-adv-x="504" />
<glyph unicode="&#x20ac;" horiz-adv-x="1341" d="M780 -28q-123 0 -228 39.5t-184.5 112t-135.5 174.5t-84 227h-104v173h81q-2 23 -2 73q0 13 1 39.5t1 39.5h-81v173h104q59 253 224 400t408 147q352 0 516 -371l-256 -113q-36 96 -103.5 152t-156.5 56q-109 0 -187.5 -72.5t-117.5 -198.5h402v-173h-435q-2 -26 -2 -79 q0 -50 2 -73h435v-173h-405q39 -130 118 -204t190 -74q91 0 159 62t103 163l256 -112q-163 -388 -518 -388z" />
<glyph unicode="&#x2122;" horiz-adv-x="957" d="M877 1034h-65v421l-150 -421h-19l-150 421v-421h-65v510h100l125 -367l124 367h100v-510zM345 1484h-120v-450h-66v450h-119v60h305v-60z" />
<glyph unicode="&#xe000;" horiz-adv-x="1122" d="M0 1122h1122v-1122h-1122v1122z" />
</font>
</defs>
</svg>
